<svg width="100" height="100" viewBox="0 0 100 100" fill="none" xmlns="http://www.w3.org/2000/svg">
<rect width="100" height="100" rx="50" fill="black"/>
<path d="M79 72.4826C79 72.754 78.9387 73.0131 78.8162 73.2598C78.3261 73.5312 77.8114 73.7163 77.2723 73.815C76.7576 73.9383 76.243 74 75.7284 74C75.4833 74 75.2137 73.9877 74.9197 73.963C74.6501 73.963 74.405 73.9383 74.1845 73.889C74.111 73.8643 74.0252 73.815 73.9272 73.7409C73.8291 73.6669 73.7311 73.6299 73.6331 73.6299C73.388 73.6299 73.1552 73.6669 72.9346 73.7409C72.7141 73.8396 72.4813 73.889 72.2362 73.889C72.1137 73.889 71.9912 73.852 71.8686 73.778C71.7706 73.7039 71.6603 73.6546 71.5378 73.6299C71.3662 73.5806 71.1947 73.5682 71.0231 73.5929C70.8516 73.6176 70.6678 73.6299 70.4717 73.6299C70.2022 73.6299 69.9571 73.5929 69.7365 73.5189C69.5405 73.4449 69.3567 73.3092 69.1852 73.1118C68.5725 73.0378 67.9721 72.9144 67.3839 72.7417C66.7958 72.5937 66.2076 72.421 65.6195 72.2236C65.0313 72.0509 64.4432 71.8782 63.855 71.7055C63.2668 71.5574 62.6664 71.4588 62.0538 71.4094C61.9067 71.2367 61.7352 71.101 61.5391 71.0023C61.3431 70.9283 61.196 70.7926 61.098 70.5952C60.9755 70.5952 60.8897 70.6076 60.8407 70.6322C60.7917 70.6816 60.7059 70.7062 60.5834 70.7062C60.1668 70.3608 59.7134 70.0648 59.2233 69.818C58.7577 69.5713 58.2675 69.3369 57.7529 69.1149C57.2628 68.8928 56.7726 68.6584 56.2825 68.4117C55.8169 68.1897 55.3758 67.8936 54.9591 67.5235H54.7753C54.5793 67.5482 54.4078 67.4988 54.2607 67.3755C54.1382 67.2768 53.9789 67.2274 53.7828 67.2274C53.6603 67.2274 53.5623 67.2398 53.4888 67.2645C53.4153 67.0671 53.305 66.9067 53.1579 66.7833C53.0109 66.66 52.8516 66.5366 52.68 66.4133C52.533 66.3146 52.386 66.2035 52.2389 66.0802C52.0919 65.9815 51.9816 65.8458 51.9081 65.6731C51.2954 65.451 50.695 65.1796 50.1069 64.8589C49.5432 64.5628 49.0408 64.1681 48.5997 63.6746C48.1096 63.6253 47.7052 63.4773 47.3867 63.2305C47.0681 62.9591 46.774 62.6261 46.5044 62.2313C45.9163 62.0339 45.3771 61.7749 44.887 61.4541C44.3969 61.1334 43.9067 60.8003 43.4166 60.4549C42.951 60.1095 42.4486 59.8011 41.9095 59.5297C41.3948 59.2336 40.8067 59.0239 40.145 58.9005C40.1205 58.7278 40.047 58.6045 39.9244 58.5304C39.8019 58.4318 39.6549 58.3577 39.4833 58.3084C39.3363 58.2344 39.1892 58.1727 39.0422 58.1234C38.8952 58.074 38.7849 57.9753 38.7114 57.8273C38.6379 57.8273 38.5643 57.8273 38.4908 57.8273C38.4173 57.8026 38.3438 57.7903 38.2702 57.7903C38.1967 57.7903 38.111 57.8026 38.0129 57.8273C37.9394 57.8273 37.8659 57.8273 37.7924 57.8273L37.8291 57.7163C37.8291 57.6176 37.7924 57.5559 37.7189 57.5312C37.6698 57.5065 37.5963 57.4819 37.4983 57.4572C37.4003 57.4325 37.3145 57.3955 37.241 57.3462C37.1675 57.2968 37.1307 57.1858 37.1307 57.0131H37.0204C36.7508 57.0131 36.5058 56.9638 36.2852 56.8651C36.0647 56.7664 35.8196 56.6924 35.55 56.643C35.501 56.9144 35.4765 57.1735 35.4765 57.4202V58.0863C35.4765 59.1966 35.5991 60.3685 35.8441 61.6022C36.0892 62.8111 36.469 63.8967 36.9837 64.8589C37.4983 65.0563 37.9394 65.3153 38.307 65.6361C38.6746 65.9568 39.0299 66.3269 39.373 66.7463C39.3975 67.4125 39.1525 67.9676 38.6378 68.4117C38.1477 68.8805 37.5718 69.1149 36.9101 69.1149C36.5425 69.1149 36.1994 69.0162 35.8809 68.8188C35.5868 68.6461 35.3417 68.387 35.1457 68.0416C34.9986 68.0416 34.8639 68.0663 34.7413 68.1157C34.6188 68.1897 34.4717 68.2267 34.3002 68.2267C34.2267 68.2267 34.1532 68.2143 34.0796 68.1897C33.8346 67.7702 33.5895 67.4002 33.3445 67.0794C33.1239 66.7587 32.9769 66.3269 32.9033 65.7841C32.6338 65.6608 32.4622 65.4387 32.3887 65.118C32.3397 64.7972 32.2049 64.5382 31.9843 64.3408C31.8863 63.2305 31.7515 62.1203 31.58 61.01C31.433 59.8998 31.3594 58.7895 31.3594 57.6793C31.3594 57.4325 31.3717 57.1858 31.3962 56.9391C31.4207 56.6677 31.4452 56.3963 31.4697 56.1249C31.4207 56.0015 31.3472 55.8905 31.2492 55.7918C31.1756 55.6685 31.1144 55.5451 31.0654 55.4217C30.5752 55.5451 30.0606 55.6685 29.5214 55.7918C29.0068 55.8905 28.4799 55.9399 27.9408 55.9399C27.5977 55.9399 27.1811 55.8905 26.6909 55.7918C26.2008 55.6685 25.821 55.5081 25.5514 55.3107C25.3553 55.1874 25.2206 54.9653 25.147 54.6446C25.049 54.2991 25 54.0031 25 53.7564C25 53.3369 25.0735 52.9175 25.2206 52.4981C25.3676 52.054 25.5637 51.6715 25.8087 51.3508C27.0095 50.8574 28.1246 50.2529 29.1538 49.5374C30.2076 48.8219 31.2369 48.0447 32.2417 47.2059C32.2662 46.9591 32.3029 46.7124 32.3519 46.4657C32.4255 46.219 32.4622 45.9599 32.4622 45.6885C32.4622 45.3924 32.3887 45.1087 32.2417 44.8373C32.3887 44.6893 32.4622 44.5042 32.4622 44.2822C32.4622 44.0355 32.5235 43.8134 32.646 43.616V43.394C32.646 43.2953 32.6338 43.1966 32.6093 43.0979C32.6093 42.9992 32.5725 42.9005 32.499 42.8019C32.6705 41.8396 32.8053 40.8897 32.9033 39.9522C33.0014 38.99 33.0504 38.0031 33.0504 36.9915C33.0504 36.9175 33.0871 36.7201 33.1607 36.3994C33.2587 36.054 33.32 35.8196 33.3445 35.6962C33.4425 35.1288 33.5037 34.5736 33.5282 34.0308C33.5773 33.4634 33.6385 32.8959 33.712 32.3284C33.7365 32.1311 32.496 32.1187 32.5696 31.798C32.6431 31.4773 32.6798 31.2552 32.6798 31.1318C32.6798 30.9591 32.6431 30.8481 32.5696 30.7988C32.5205 30.7247 32.4715 30.6137 32.4225 30.4657C32.5696 29.8982 33.9326 29.084 33.9326 28.5166C33.9571 27.9244 34.0061 27.3446 34.0796 26.7772C34.4963 26.6045 34.8271 26.4318 35.0722 26.2591C35.3172 26.0864 35.6726 26 36.1382 26H36.2117C36.2607 26.2961 36.371 26.5798 36.5425 26.8512C36.7141 27.0979 36.8856 27.357 37.0572 27.6284C37.2532 27.8751 37.4248 28.1218 37.5718 28.3685C37.7189 28.5906 37.7924 28.8126 37.7924 29.0347C37.7924 29.4541 37.7556 29.9106 37.6821 30.404C37.6086 30.8975 37.5473 31.3539 37.4983 31.7733C37.3758 32.8836 37.2655 33.9815 37.1675 35.0671C37.0694 36.128 36.9224 37.2136 36.7263 38.3238C36.7999 38.6692 36.8366 38.99 36.8366 39.286C36.8366 39.7301 36.7999 40.1742 36.7263 40.6184C36.6528 41.0625 36.6161 41.5189 36.6161 41.9877C36.6161 42.2097 36.6283 42.4441 36.6528 42.6908C36.7018 42.9375 36.7754 43.1596 36.8734 43.357C37.7066 43.1349 38.4541 42.6785 39.1157 41.9877C39.2137 41.889 39.3118 41.7656 39.4098 41.6176C39.5323 41.4449 39.6549 41.3092 39.7774 41.2105C40.0225 41.0131 40.2798 40.8404 40.5494 40.6924C40.8434 40.5197 41.1252 40.347 41.3948 40.1742C42.032 39.7548 42.6447 39.3231 43.2328 38.879C43.8455 38.4102 44.4581 37.9537 45.0708 37.5096C46.8843 36.1773 48.6365 34.7957 50.3274 33.3647C52.0429 31.909 53.7093 30.3793 55.3267 28.7756C55.4003 28.3562 55.5473 28.0231 55.7679 27.7764C55.9884 27.5297 56.1845 27.2336 56.356 26.8882C56.8216 26.7155 57.226 26.4564 57.5691 26.111C57.7161 26.1604 57.8632 26.1974 58.0102 26.222C58.1818 26.222 58.341 26.222 58.4881 26.222C58.6596 26.222 58.8189 26.2344 58.966 26.2591C59.1375 26.2591 59.2845 26.2961 59.4071 26.3701C59.4316 26.7402 59.4683 27.0732 59.5174 27.3693C59.5664 27.6654 59.7134 27.9491 59.9585 28.2205C59.9585 28.2699 59.9585 28.3192 59.9585 28.3685C59.983 28.4179 59.9952 28.4672 59.9952 28.5166C59.9952 28.788 59.9217 29.01 59.7747 29.1827C59.6276 29.3554 59.5419 29.5651 59.5174 29.8119L57.6059 31.7363C56.9687 32.3778 56.3805 33.0686 55.8414 33.8088C55.6453 33.8335 55.4738 33.8951 55.3267 33.9938C55.1797 34.0925 55.0327 34.2035 54.8856 34.3269C54.7631 34.4256 54.6283 34.5243 54.4813 34.623C54.3342 34.7217 54.1749 34.7957 54.0034 34.845C53.5623 35.4372 53.0599 35.98 52.4963 36.4734C51.9326 36.9422 51.3567 37.3986 50.7685 37.8427C50.1804 38.2868 49.5922 38.7433 49.0041 39.212C48.4404 39.6561 47.9135 40.1496 47.4234 40.6924C46.9088 40.9391 46.4064 41.2352 45.9163 41.5806C45.4506 41.9013 45.0708 42.3084 44.7767 42.8019H44.5929C44.4704 42.8019 44.3724 42.8389 44.2988 42.9129C44.2253 42.9622 44.1273 42.9869 44.0048 42.9869C42.6814 44.1465 41.309 45.2444 39.8877 46.2806C38.4663 47.2922 37.1062 48.4025 35.8074 49.6114V50.5366C36.224 50.7833 36.6773 51.0177 37.1675 51.2398C37.6576 51.4372 38.1355 51.6592 38.6011 51.9059C39.0912 52.1527 39.5446 52.4241 39.9612 52.7201C40.4023 52.9915 40.7822 53.3246 41.1008 53.7194C41.1498 53.6947 41.211 53.6823 41.2846 53.6823C41.5051 53.6823 41.6766 53.7564 41.7992 53.9044C41.9217 54.0278 42.13 54.0648 42.4241 54.0154C42.5221 54.4102 42.7427 54.6939 43.0858 54.8666C43.4289 55.0393 43.772 55.1874 44.115 55.3107C44.4091 55.6068 44.6787 55.8905 44.9238 56.1619C45.1688 56.4086 45.5242 56.569 45.9898 56.643C46.0388 56.7417 46.0756 56.8527 46.1001 56.9761C46.1246 57.0995 46.1736 57.2105 46.2471 57.3092C46.7127 57.4572 47.1538 57.6669 47.5705 57.9383C48.0116 58.2097 48.4404 58.4934 48.857 58.7895C49.2737 59.0609 49.6903 59.3323 50.1069 59.6037C50.548 59.8504 51.0136 60.0478 51.5037 60.1958C51.5773 60.4426 51.712 60.6153 51.9081 60.714C52.1287 60.8126 52.3002 60.9607 52.4227 61.1581H53.0844C53.1579 61.2814 53.2559 61.4048 53.3785 61.5281C53.501 61.6268 53.5868 61.7749 53.6358 61.9722C53.8319 62.0216 54.0524 62.0956 54.2975 62.1943C54.5425 62.2683 54.7631 62.367 54.9591 62.4904C55.0327 62.5644 55.0817 62.6507 55.1062 62.7494C55.1552 62.8481 55.2287 62.9345 55.3267 63.0085C55.4738 63.1318 55.6943 63.2305 55.9884 63.3045C56.307 63.3539 56.5766 63.4402 56.7971 63.5636C57.2383 63.8103 57.6671 64.0817 58.0837 64.3778C58.5003 64.6985 58.9415 64.9946 59.4071 65.266L60.8407 66.0432C61.0858 66.1665 61.3063 66.3022 61.5024 66.4503C61.7229 66.5983 61.9435 66.734 62.1641 66.8574C62.6052 67.0547 63.0708 67.1781 63.5609 67.2274C64.0756 67.3015 64.5412 67.4372 64.9578 67.6345C65.0803 67.7086 65.1661 67.7949 65.2151 67.8936C65.2641 68.017 65.3499 68.1156 65.4724 68.1897C65.6685 68.313 65.9748 68.3994 66.3914 68.4487C66.808 68.4981 67.1511 68.5844 67.4207 68.7078C67.7638 68.8558 68.0946 68.9915 68.4132 69.1149C68.7563 69.2629 69.0994 69.4356 69.4425 69.633C70.1777 69.6823 70.9006 69.7687 71.6113 69.8921C72.3465 70.0154 73.0694 70.1388 73.7801 70.2621C74.4908 70.3855 75.2015 70.4965 75.9122 70.5952C76.6474 70.6939 77.3826 70.7309 78.1178 70.7062C78.1178 70.7556 78.1423 70.7803 78.1913 70.7803C78.2648 70.8049 78.3261 70.8173 78.3751 70.8173C78.5466 71.0887 78.6937 71.3601 78.8162 71.6315C78.9387 71.9029 79 72.1866 79 72.4826Z" fill="white" stroke="white" stroke-width="5"/>
</svg>
